# xmcd CD database file
#
# Track frame offsets:
#	150
#	26043
#	53750
#	74234
#	101933
#	119212
#	143754
#	171348
#	206928
#
# Disc length: 3151 seconds
#
# Revision: 0
# Processed by: cddbd v1.4PL0 Copyright (c) Steve Scherf et al.
# Submitted via: CDex 1.50Beta1
#
DISCID=990c4d09
DTITLE=Paco De Lucia - Al Di Meola - John McLaughlin - The Guitar Trio
DYEAR=1900
DGENRE=Jazz
TTITLE0=La Estiba
TTITLE1=Beyond the Mirage
TTITLE2=Midsummer Night
TTITLE3=Manha De Carnaval
TTITLE4=Letter From India
TTITLE5=Espiritu
TTITLE6=Le Monastere Dans Les Montagnes
TTITLE7=Azzura
TTITLE8=Cardeosa
EXTD=
EXTT0=
EXTT1=
EXTT2=
EXTT3=
EXTT4=
EXTT5=
EXTT6=
EXTT7=
EXTT8=
PLAYORDER=
